<svg xmlns="http://www.w3.org/2000/svg" viewBox="0 0 512 512" width="512" height="512">
<g>
<path d="M200,160 Q200,100 256,100 Q312,100 312,160" fill="none" stroke="#2ED573" stroke-width="24" stroke-linecap="round"/>
<path d="M140,200 Q100,300 100,360 Q100,440 200,440 L312,440 Q412,440 412,360 Q412,300 372,200 Z" fill="#2ED573" stroke="#2D3436" stroke-width="24" stroke-linejoin="round"/>
<line x1="256" y1="240" x2="256" y2="400" stroke="#2D3436" stroke-width="12" stroke-linecap="round"/>
<path d="M296,280 Q296,260 256,260 Q216,260 216,290 Q216,320 256,320 Q296,320 296,350 Q296,380 256,380 Q216,380 216,360" fill="none" stroke="#2D3436" stroke-width="12" stroke-linecap="round"/>
</g>
</svg>